<svg id="Group_1942" data-name="Group 1942" xmlns="http://www.w3.org/2000/svg" width="20.713" height="16.825" viewBox="0 0 20.713 16.825">
  <path id="Path_184" data-name="Path 184" d="M2040.834,411.357a8.5,8.5,0,0,1-2.44.671,4.279,4.279,0,0,0,1.871-2.353,8.47,8.47,0,0,1-2.705,1.031,4.248,4.248,0,0,0-7.345,2.908,4.4,4.4,0,0,0,.109.968,12.064,12.064,0,0,1-8.76-4.439,4.248,4.248,0,0,0,1.314,5.67,4.189,4.189,0,0,1-1.921-.531v.052a4.26,4.26,0,0,0,3.406,4.172,4.388,4.388,0,0,1-1.118.144,4.289,4.289,0,0,1-.8-.074,4.264,4.264,0,0,0,3.969,2.952,8.541,8.541,0,0,1-5.279,1.814,9.084,9.084,0,0,1-1.011-.057,12.085,12.085,0,0,0,18.6-10.176l-.013-.55a8.576,8.576,0,0,0,2.125-2.2Zm0,0" transform="translate(-2020.121 -409.366)" fill="#fff"/>
</svg>
