<svg version="1.2" xmlns="http://www.w3.org/2000/svg" viewBox="0 0 146 60" width="146" height="60"><style>.a{fill:#2c3646}.b{fill:#515a68}</style><path class="a" d="m263 22.9h39v2h-39z"/><path class="a" d="m263 34.9h39v2h-39z"/><path class="a" d="m263 45.9h39v2h-39z"/><path fill-rule="evenodd" class="b" d="m15.3 42.7q-0.7 0-1.5 0-0.7-0.1-1.5-0.3-0.7-0.1-1.5-0.3-0.7-0.3-1.4-0.6-1.4-0.5-2.6-1.4-1.2-0.8-2.3-1.9-1.1-1-1.9-2.3-0.8-1.2-1.4-2.6-0.6-1.4-0.9-2.9-0.3-1.5-0.3-3 0-1.6 0.3-3.1 0.3-1.5 0.9-2.9 0.3-0.6 0.6-1.3 0.4-0.6 0.8-1.2 0.4-0.7 0.9-1.2 0.5-0.6 1-1.1 0.5-0.5 1.1-1 0.6-0.5 1.2-0.9 0.6-0.4 1.3-0.7 0.6-0.4 1.3-0.7 1.4-0.6 2.9-0.9 1.5-0.3 3.1-0.3 1.5 0 3 0.3 1.5 0.3 2.9 0.9 1.4 0.6 2.6 1.4 1.2 0.9 2.2 1.9 1.1 1 1.9 2.3 0.8 1.2 1.4 2.5 0.3 0.7 0.5 1.5 0.3 0.7 0.4 1.5 0.2 0.7 0.2 1.5 0.1 0.7 0.1 1.5v15.3zm-5.2-7.6q0.8 0.5 1.6 0.9 0.9 0.3 1.8 0.5 0.9 0.2 1.8 0.2h9.2v-9.3q0-0.5 0-0.9-0.1-0.5-0.2-0.9-0.1-0.5-0.2-0.9-0.1-0.5-0.3-0.9-0.4-0.8-0.9-1.5-0.5-0.8-1.1-1.4-0.6-0.6-1.4-1.1-0.7-0.5-1.5-0.9-0.4-0.2-0.9-0.3-0.4-0.1-0.9-0.2-0.4-0.1-0.9-0.2-0.4 0-0.9 0-0.9 0-1.8 0.2-0.9 0.1-1.8 0.5-0.8 0.3-1.6 0.8-0.7 0.5-1.4 1.2-0.3 0.3-0.6 0.6-0.3 0.4-0.5 0.8-0.3 0.3-0.5 0.7-0.2 0.4-0.4 0.8-0.1 0.4-0.3 0.9-0.1 0.4-0.2 0.9-0.1 0.4-0.1 0.9-0.1 0.4-0.1 0.9 0 0.9 0.2 1.8 0.2 0.9 0.5 1.7 0.4 0.9 0.9 1.7 0.5 0.7 1.1 1.4 0.7 0.6 1.4 1.1z"/><path fill-rule="evenodd" class="b" d="m35.9 37.3q-0.5-0.6-0.9-1.2-0.4-0.6-0.8-1.3-0.3-0.7-0.6-1.3-0.3-0.7-0.6-1.5-0.2-0.7-0.3-1.4-0.2-0.8-0.3-1.5 0-0.8 0-1.6v-27.5h6v12.3h9.3q0.8 0 1.5 0 0.8 0.1 1.5 0.3 0.8 0.1 1.5 0.3 0.8 0.3 1.5 0.6 1.3 0.5 2.5 1.4 1.3 0.8 2.3 1.8 1 1.1 1.9 2.3 0.8 1.2 1.4 2.6 0.6 1.4 0.9 2.9 0.3 1.5 0.3 3 0 1.5-0.3 3-0.3 1.5-0.9 3-0.3 0.6-0.7 1.3-0.3 0.7-0.7 1.3-0.4 0.6-0.9 1.2-0.5 0.5-1 1.1-0.5 0.5-1.1 1-0.5 0.4-1.2 0.9-0.6 0.4-1.2 0.7-0.7 0.4-1.3 0.7-1.4 0.6-2.9 0.9-1.5 0.3-3.1 0.3-1.5 0-3-0.3-1.5-0.3-2.9-0.9-0.7-0.3-1.4-0.7-0.6-0.3-1.2-0.7-0.7-0.5-1.2-0.9-0.6-0.5-1.1-1-0.6-0.6-1-1.1zm2.5-9.8c0 1.2 0.3 2.5 0.7 3.6 0.5 1.1 1.2 2.1 2 3 0.9 0.9 1.9 1.5 3 2 1.2 0.5 2.4 0.7 3.6 0.7q0.5 0 0.9 0 0.5-0.1 0.9-0.2 0.5-0.1 0.9-0.2 0.5-0.1 0.9-0.3 1.2-0.5 2.3-1.4 1-0.9 1.8-2 0.7-1.2 1.1-2.5 0.4-1.3 0.4-2.7 0-0.4 0-0.9-0.1-0.4-0.2-0.9-0.1-0.4-0.2-0.9-0.1-0.4-0.3-0.8-0.4-0.9-0.9-1.6-0.5-0.7-1.1-1.4-0.6-0.6-1.4-1.1-0.7-0.5-1.5-0.9-0.4-0.1-0.9-0.3-0.4-0.1-0.9-0.2-0.4-0.1-0.9-0.1-0.4-0.1-0.9-0.1h-9.3z"/><path fill-rule="evenodd" class="b" d="m93.2 17.7q0.4 0.6 0.8 1.2 0.4 0.6 0.8 1.2 0.4 0.7 0.6 1.3 0.3 0.7 0.6 1.5 0.2 0.7 0.3 1.5 0.2 0.7 0.3 1.5 0 0.7 0 1.5v12.3q0 0.7 0 1.5-0.1 0.8-0.3 1.5-0.1 0.8-0.3 1.5-0.3 0.7-0.6 1.4-0.3 0.7-0.6 1.4-0.4 0.6-0.8 1.2-0.4 0.6-0.8 1.2-0.5 0.6-1 1.1-0.5 0.5-1.1 1-0.6 0.5-1.2 0.9-0.6 0.4-1.2 0.8-0.7 0.3-1.4 0.6-0.7 0.3-1.4 0.5-0.7 0.3-1.5 0.4-0.7 0.2-1.5 0.2-0.8 0.1-1.5 0.1h-3.1v-6.1h3.1q0.7 0 1.4-0.1 0.7-0.1 1.4-0.3 0.7-0.2 1.4-0.5 0.6-0.4 1.2-0.8 0.6-0.4 1.1-0.9 0.5-0.5 0.9-1.1 0.4-0.5 0.7-1.2 0.4-0.6 0.6-1.3h-8.7q-0.8 0-1.6 0-0.7-0.1-1.5-0.3-0.7-0.1-1.4-0.3-0.8-0.3-1.5-0.6-1.3-0.5-2.6-1.4-1.2-0.8-2.3-1.9-1-1-1.9-2.3-0.8-1.2-1.4-2.6-0.6-1.4-0.9-2.9-0.3-1.5-0.3-3 0-1.5 0.3-3.1 0.3-1.5 0.9-2.9 0.3-0.6 0.7-1.3 0.3-0.6 0.7-1.2 0.5-0.7 0.9-1.2 0.5-0.6 1-1.1 0.6-0.5 1.1-1 0.6-0.5 1.2-0.9 0.6-0.4 1.3-0.7 0.7-0.4 1.3-0.7 1.5-0.6 3-0.9 1.5-0.3 3-0.3 1.5 0 3 0.3 1.5 0.3 2.9 0.9 0.7 0.3 1.4 0.7 0.6 0.3 1.2 0.7 0.6 0.4 1.2 0.9 0.5 0.5 1.1 1 0.5 0.5 1 1.1zm-2.6 9.7q0-0.5 0-0.9 0-0.5-0.1-0.9-0.1-0.5-0.3-0.9-0.1-0.5-0.3-0.9-0.2-0.4-0.4-0.8-0.2-0.4-0.4-0.7-0.3-0.4-0.6-0.8-0.2-0.3-0.6-0.6c-0.8-0.9-1.8-1.5-3-2-1.1-0.5-2.3-0.7-3.5-0.7-1.3 0-2.5 0.2-3.6 0.7-1.1 0.5-2.1 1.1-3 2q-0.3 0.3-0.6 0.6-0.3 0.4-0.5 0.8-0.3 0.3-0.5 0.7-0.2 0.4-0.4 0.8-0.2 0.4-0.3 0.9-0.1 0.4-0.2 0.9-0.1 0.4-0.2 0.9 0 0.4 0 0.9c0 1.2 0.2 2.4 0.7 3.6 0.5 1.1 1.1 2.1 2 3 0.9 0.8 1.9 1.5 3 2 1.1 0.4 2.3 0.7 3.6 0.7h9.2z"/><path class="b" d="m7.2 55.4l-4-7.2h-2.1v10.8h2v-7.1l4 7.1h2.1v-10.8h-2z"/><path class="b" d="m14 54.2h3.7v-1.8h-3.7v-2.3h4.6v-1.9h-6.6v10.8h6.8v-1.8h-4.8z"/><path class="b" d="m20.1 50.1h2.9v8.9h2v-8.9h3v-1.9h-7.9z"/><path class="b" d="m38.1 56.2l-2-6.8h-1.7l-2 6.8-1.8-7.9h-2.2l2.9 10.7h2l1.9-6.3 2 6.3h2l2.9-10.7h-2.2z"/><path fill-rule="evenodd" class="b" d="m50.2 48.2q0.6 0.2 1.2 0.5 0.6 0.3 1.1 0.8 0.4 0.5 0.7 1.1 0.2 0.3 0.4 0.7 0.1 0.4 0.2 0.8 0.1 0.3 0.1 0.7 0.1 0.4 0.1 0.8 0 0.8-0.1 1.5-0.2 0.7-0.5 1.4-0.4 0.6-0.9 1.2-0.5 0.5-1.1 0.9-0.3 0.1-0.6 0.2-0.3 0.2-0.6 0.2-0.3 0.1-0.7 0.1-0.3 0.1-0.6 0.1-0.7 0-1.3-0.2-0.7-0.1-1.3-0.4-0.5-0.4-1-0.8-0.5-0.5-0.8-1.1-0.2-0.3-0.3-0.7-0.2-0.4-0.3-0.8 0-0.4-0.1-0.8 0-0.4 0-0.8-0.1-0.7 0.1-1.4 0.1-0.7 0.5-1.4 0.3-0.6 0.8-1.2 0.5-0.5 1.1-0.9 0.3-0.1 0.6-0.2 0.4-0.2 0.7-0.2 0.3-0.1 0.6-0.1 0.3-0.1 0.7-0.1 0.6 0 1.3 0.1zm1.5 6.9q0.2-0.7 0.2-1.5 0-0.7-0.2-1.4-0.2-0.7-0.7-1.3-0.2-0.2-0.4-0.4-0.3-0.2-0.5-0.3-0.3-0.1-0.6-0.2-0.3 0-0.6 0-0.3 0-0.6 0-0.3 0.1-0.6 0.2-0.3 0.1-0.6 0.3-0.2 0.2-0.4 0.4-0.4 0.6-0.7 1.3-0.2 0.7-0.2 1.4 0 0.8 0.2 1.5 0.3 0.7 0.7 1.3 0.2 0.2 0.4 0.4 0.3 0.2 0.6 0.3 0.3 0.1 0.6 0.2 0.3 0 0.6 0 0.3 0 0.6 0 0.3-0.1 0.6-0.2 0.2-0.1 0.5-0.3 0.2-0.2 0.4-0.4 0.5-0.6 0.7-1.3z"/><path fill-rule="evenodd" class="b" d="m63.2 52.3q-0.1 0.4-0.4 0.8-0.3 0.4-0.7 0.7-0.4 0.3-0.8 0.4l3 4.8h-2.3l-2.9-4.6h-1v4.6h-2v-10.8h3.9c2.1 0 3.3 1.3 3.3 3.1q0 0.5-0.1 1zm-1.9-1q0-1.2-1.3-1.2h-1.9v2.4h1.9q1.3 0 1.3-1.2z"/><path class="b" d="m73.8 48.2h-2.4l-3.7 4.1v-4.1h-2v10.8h2v-5.1l3.9 5.1h2.6l-4.7-5.9z"/><path class="b" d="m115.7 12.1l-16.6 45.5h7.3l11.5-45.5z"/><path class="b" d="m112.2 57.6h6.9l2.8-45.5h-2.8z"/><path class="b" d="m129.4 12.1h-2.2l11.5 45.5h7.3z"/><path class="b" d="m123.2 12.1l2.8 45.5h6.9l-6.9-45.5z"/></svg>