<svg xmlns="http://www.w3.org/2000/svg" width="19.024" height="18.178" viewBox="0 0 19.024 18.178">
  <g id="Group_1490" data-name="Group 1490" transform="translate(-1170.58 -507.806)">
    <path id="Path_12139" data-name="Path 12139" d="M1189.6,518.951v7.034h-4.078v-6.562c0-1.648-.589-2.773-2.065-2.773a2.23,2.23,0,0,0-2.092,1.491,2.8,2.8,0,0,0-.135.994v6.85h-4.079s.055-11.115,0-12.265h4.079v1.738c-.008.013-.02.027-.027.04h.027v-.04a4.049,4.049,0,0,1,3.675-2.026c2.683,0,4.7,1.753,4.7,5.52Zm-16.716-11.145a2.125,2.125,0,1,0-.053,4.238h.027a2.126,2.126,0,1,0,.026-4.238Zm-2.065,18.178h4.077V513.719h-4.077Zm0,0" transform="translate(0 0)" fill="#fff"/>
  </g>
</svg>
